<?xml version="1.0" encoding="utf-8"?>
<!-- Generator: Adobe Illustrator 27.7.0, SVG Export Plug-In . SVG Version: 6.00 Build 0)  -->
<svg version="1.1" id="Layer_1" xmlns="http://www.w3.org/2000/svg" xmlns:xlink="http://www.w3.org/1999/xlink" x="0px" y="0px"
	 viewBox="0 0 22.01 19.89" style="enable-background:new 0 0 22.01 19.89;" xml:space="preserve">
<style type="text/css">
	.st0{fill-opacity:0;}
	.st1{fill-opacity:0.85;}
</style>
<g>
	<rect class="st0" width="22.01" height="19.89"/>
	<path class="st1" d="M22.01,9.94C22,8.8,20.45,7.97,18.58,7.97h-3.94c-0.55,0-0.75-0.09-1.07-0.46L7.01,0.35
		C6.81,0.12,6.55,0,6.26,0H5.13c-0.25,0-0.4,0.22-0.27,0.5l3.38,7.47L3.27,8.54L1.5,5.29C1.38,5.05,1.16,4.94,0.84,4.94H0.42
		C0.17,4.94,0,5.11,0,5.36v9.16c0,0.25,0.17,0.41,0.42,0.41h0.42c0.32,0,0.54-0.11,0.66-0.34l1.77-3.24l4.96,0.57l-3.38,7.47
		c-0.13,0.26,0.02,0.5,0.27,0.5h1.13c0.29,0,0.55-0.13,0.75-0.35l6.56-7.17c0.32-0.36,0.53-0.45,1.07-0.45h3.94
		C20.45,11.91,22,11.07,22.01,9.94z"/>
</g>
</svg>
