<?xml version="1.0" encoding="UTF-8"?>
<svg id="Layer_1" data-name="Layer 1" xmlns="http://www.w3.org/2000/svg" viewBox="0 0 905.61 1024.01">
  <defs>
    <style>
      .cls-1 {
        stroke-width: .5px;
      }
    </style>
  </defs>
  <g id="Ultralight-S">
    <path class="cls-1" d="m452.52,1023.76c10.53,0,19.33-4.42,31.29-11.1l393.12-226.97c18.28-10.22,28.43-20.02,28.43-35.58s-10.15-25.93-28.43-36.19l-393.12-226.93c-11.96-6.67-20.75-11.1-31.29-11.1-9.97,0-18.76,4.42-30.72,11.1L28.68,713.92c-18.28,10.26-28.43,20.06-28.43,36.19s10.15,25.36,28.43,35.58l393.12,226.97c11.96,6.67,20.75,11.1,30.72,11.1Zm0-28.72c-5.03,0-8.33-1.87-14.01-5.03L42.33,762.19c-5.21-2.87-9.21-6.35-9.21-12.08,0-6.35,4-9.78,9.21-12.65l396.18-227.81c5.68-3.17,8.98-5.03,14.01-5.03s8.89,1.87,14.57,5.03l396.18,227.81c5.22,2.87,9.21,6.3,9.21,12.65,0,5.74-4,9.21-9.21,12.08l-396.18,227.81c-5.68,3.17-9.54,5.03-14.57,5.03Zm0-204.59c10.53,0,19.33-4.42,31.29-11.66l393.12-226.93c18.28-10.26,28.43-20.06,28.43-35.63s-10.15-25.36-28.43-36.15l-393.12-226.36c-11.96-7.28-20.75-11.71-31.29-11.71-9.97,0-18.76,4.42-30.72,11.71L28.68,480.08c-18.28,10.79-28.43,20.02-28.43,36.15s10.15,25.36,28.43,35.63l393.12,226.93c11.96,7.24,20.75,11.66,30.72,11.66Zm0-29.29c-5.03,0-8.33-1.87-14.01-4.99L42.33,528.31c-5.21-2.87-9.21-6.3-9.21-12.08s4-9.17,9.21-12.08l396.18-227.81c5.68-3.17,8.98-5.03,14.01-5.03s8.89,1.87,14.57,5.03l396.18,227.81c5.22,2.91,9.21,6.35,9.21,12.08s-4,9.21-9.21,12.08l-396.18,227.86c-5.68,3.12-9.54,4.99-14.57,4.99Zm0-213.09c10.53,0,19.33-4.42,31.29-11.1l393.12-226.93c18.28-10.26,28.43-20.06,28.43-35.63s-10.15-25.93-28.43-36.15L483.81,11.35c-11.96-6.71-20.75-11.1-31.29-11.1-9.97,0-18.76,4.38-30.72,11.1L28.68,238.27C10.4,248.5.25,258.34.25,274.42s10.15,25.36,28.43,35.63l393.12,226.93c11.96,6.67,20.75,11.1,30.72,11.1Zm0-28.72c-5.03,0-8.33-1.87-14.01-4.99L42.33,286.5c-5.21-2.87-9.21-6.3-9.21-12.08,0-6.3,4-9.74,9.21-12.65L438.51,33.96c5.68-3.17,8.98-5.03,14.01-5.03s8.89,1.87,14.57,5.03l396.18,227.81c5.22,2.91,9.21,6.34,9.21,12.65,0,5.78-4,9.21-9.21,12.08l-396.18,227.86c-5.68,3.12-9.54,4.99-14.57,4.99Z"/>
  </g>
</svg>